<svg xmlns="http://www.w3.org/2000/svg" width="43.663" height="40" viewBox="0 0 43.663 40"><defs><style>.a{fill:#dc7c00;stroke:#dc7c00;}.a,.b{stroke-linecap:round;stroke-linejoin:round;stroke-width:3px;}.b{fill:#ff9000;stroke:#ff9000;}</style></defs><g transform="translate(-1303 -196.5)"><path class="a" d="M4.5,22.573a3.012,3.012,0,0,0,3.012,3.012H25.585l6.024,6.024V7.512A3.012,3.012,0,0,0,28.6,4.5H7.512A3.012,3.012,0,0,0,4.5,7.512Z" transform="translate(1313.554 203.391)"/><path class="b" d="M31.609,22.573A3.012,3.012,0,0,1,28.6,25.585H10.524L4.5,31.609V7.512A3.012,3.012,0,0,1,7.512,4.5H28.6a3.012,3.012,0,0,1,3.012,3.012Z" transform="translate(1300 193.5)"/></g></svg>