<svg xmlns="http://www.w3.org/2000/svg" width="40" height="40" viewBox="0 0 40 40"><defs><style>.a{fill:red;stroke:red;stroke-linecap:round;stroke-linejoin:round;stroke-width:3px;}.b{fill:#fff;}</style></defs><g transform="translate(-1201 -196.5)"><path class="a" d="M41.5,29.167a4.111,4.111,0,0,1-4.111,4.111H12.722L4.5,41.5V8.611A4.111,4.111,0,0,1,8.611,4.5H37.389A4.111,4.111,0,0,1,41.5,8.611Z" transform="translate(1198 193.5)"/><path class="b" d="M20.092,18.406l5.086-5.086a1.192,1.192,0,0,0-1.685-1.685l-5.086,5.086-5.086-5.086a1.192,1.192,0,1,0-1.685,1.685l5.086,5.086-5.086,5.086a1.192,1.192,0,0,0,1.685,1.685l5.086-5.086,5.086,5.086a1.192,1.192,0,0,0,1.685-1.685Z" transform="translate(1203.063 194.689)"/></g></svg>